<svg width="180" height="180" viewBox="0 0 180 180" fill="none" xmlns="http://www.w3.org/2000/svg">
  <!-- Background -->
  <rect width="180" height="180" fill="#0f1112" rx="40"/>
  
  <!-- Elegant 'S' monogram with modern curves - scaled and centered -->
  <path
    d="M90 40C68.68 40 51.5 57.18 51.5 78.5c0 14.06 5.63 25.31 14.06 33.75 8.44 8.44 19.69 14.06 33.75 14.06 14.06 0 25.31-5.62 33.75-14.06 8.43-8.44 14.06-19.69 14.06-33.75M90 140c29.82 0 54-24.18 54-54 0-14.06-5.63-25.31-14.06-33.75-8.44-8.44-19.69-14.06-33.75-14.06-14.06 0-25.31 5.62-33.75 14.06C53.63 60.69 48 71.94 48 86"
    stroke="#5eead4"
    strokeWidth="14"
    strokeLinecap="round"
  />
</svg>
